<svg width="26" height="26" viewBox="0 0 26 26" fill="none" xmlns="http://www.w3.org/2000/svg">
<g clip-path="url(#clip0_59_121)">
<path d="M13.3981 5.19598C7.66243 5.19598 2.99609 9.86233 2.99609 15.598C2.99609 21.3337 7.66243 26 13.3981 26C19.1337 26 23.8001 21.3337 23.8001 15.598C23.8001 9.86238 19.1338 5.19598 13.3981 5.19598ZM13.3981 24.4766C8.50246 24.4766 4.51953 20.4936 4.51953 15.598C4.51953 10.7024 8.50246 6.71947 13.3981 6.71947C18.2937 6.71947 22.2766 10.7024 22.2766 15.598C22.2766 20.4936 18.2937 24.4766 13.3981 24.4766Z" fill="white"/>
<path d="M17.9408 17.5324C17.6215 17.2585 17.1406 17.2953 16.8667 17.6146C15.9969 18.6286 14.7327 19.2102 13.3981 19.2102C12.0636 19.2102 10.7993 18.6287 9.92957 17.6147C9.65565 17.2954 9.17481 17.2586 8.85549 17.5325C8.53618 17.8064 8.49937 18.2873 8.77328 18.6066C9.93282 19.9584 11.6186 20.7337 13.3981 20.7337C15.1778 20.7337 16.8635 19.9584 18.023 18.6065C18.2969 18.2872 18.2601 17.8063 17.9408 17.5324Z" fill="white"/>
<path d="M9.16937 14.3999C9.59004 14.3999 9.93109 14.0589 9.93109 13.6382C9.93109 13.394 10.1298 13.1953 10.374 13.1953C10.6182 13.1953 10.8169 13.394 10.8169 13.6382C10.8169 14.0589 11.158 14.3999 11.5786 14.3999C11.9993 14.3999 12.3404 14.0589 12.3404 13.6382C12.3404 12.554 11.4582 11.6719 10.374 11.6719C9.28977 11.6719 8.40765 12.554 8.40765 13.6382C8.40765 14.0589 8.7487 14.3999 9.16937 14.3999Z" fill="white"/>
<path d="M16.4222 11.6719C15.338 11.6719 14.4558 12.554 14.4558 13.6382C14.4558 14.0589 14.7969 14.4 15.2176 14.4C15.6382 14.4 15.9793 14.0589 15.9793 13.6382C15.9793 13.394 16.178 13.1953 16.4222 13.1953C16.6664 13.1953 16.8651 13.394 16.8651 13.6382C16.8651 14.0589 17.2062 14.4 17.6268 14.4C18.0475 14.4 18.3885 14.0589 18.3885 13.6382C18.3885 12.5539 17.5064 11.6719 16.4222 11.6719Z" fill="white"/>
<path d="M19.6737 4.27887H20.7849C21.2056 4.27887 21.5466 3.93782 21.5466 3.51715C21.5466 3.09648 21.2056 2.75543 20.7849 2.75543H19.6737C19.253 2.75543 18.912 3.09648 18.912 3.51715C18.912 3.93782 19.253 4.27887 19.6737 4.27887Z" fill="white"/>
<path d="M22.456 7.03428C22.8766 7.03428 23.2177 6.69323 23.2177 6.27256V5.16132C23.2177 4.74064 22.8766 4.3996 22.456 4.3996C22.0353 4.3996 21.6942 4.74064 21.6942 5.16132V6.27256C21.6942 6.69328 22.0353 7.03428 22.456 7.03428Z" fill="white"/>
<path d="M25.2383 2.75543H24.127C23.7064 2.75543 23.3653 3.09648 23.3653 3.51715C23.3653 3.93782 23.7064 4.27887 24.127 4.27887H25.2383C25.659 4.27887 26 3.93782 26 3.51715C26 3.09648 25.659 2.75543 25.2383 2.75543Z" fill="white"/>
<path d="M22.456 2.63468C22.8766 2.63468 23.2177 2.29364 23.2177 1.87296V0.761719C23.2177 0.341047 22.8766 0 22.456 0C22.0353 0 21.6942 0.341047 21.6942 0.761719V1.87296C21.6942 2.29364 22.0353 2.63468 22.456 2.63468Z" fill="white"/>
<path d="M1.64887 3.77106H0.761719C0.341047 3.77106 0 4.1121 0 4.53278C0 4.95345 0.341047 5.29449 0.761719 5.29449H1.64887C2.06954 5.29449 2.41059 4.95345 2.41059 4.53278C2.41059 4.1121 2.06954 3.77106 1.64887 3.77106Z" fill="white"/>
<path d="M3.99863 6.98645V6.0993C3.99863 5.67863 3.65758 5.33759 3.23691 5.33759C2.81624 5.33759 2.47519 5.67863 2.47519 6.0993V6.98645C2.47519 7.40712 2.81624 7.74817 3.23691 7.74817C3.65758 7.74817 3.99863 7.40712 3.99863 6.98645Z" fill="white"/>
<path d="M4.82489 5.29449H5.71204C6.13271 5.29449 6.47376 4.95345 6.47376 4.53278C6.47376 4.1121 6.13271 3.77106 5.71204 3.77106H4.82489C4.40422 3.77106 4.06317 4.1121 4.06317 4.53278C4.06317 4.95345 4.40422 5.29449 4.82489 5.29449Z" fill="white"/>
<path d="M3.23691 3.72791C3.65758 3.72791 3.99863 3.38686 3.99863 2.96619V2.07904C3.99863 1.65837 3.65758 1.31732 3.23691 1.31732C2.81624 1.31732 2.47519 1.65837 2.47519 2.07904V2.96619C2.47519 3.38686 2.81624 3.72791 3.23691 3.72791Z" fill="white"/>
</g>
<defs>
<clipPath id="clip0_59_121">
<rect width="26" height="26" fill="white"/>
</clipPath>
</defs>
</svg>
