<svg width="11" height="11" viewBox="0 0 11 11" fill="none" xmlns="http://www.w3.org/2000/svg">
<g clip-path="url(#clip0_59_462)">
<path d="M10.9973 11V10.9995H11V6.96528C11 4.9917 10.5751 3.47141 8.26788 3.47141C7.15871 3.47141 6.41438 4.08007 6.1105 4.65711H6.07842V3.65566H3.89079V10.9995H6.16871V7.36311C6.16871 6.40566 6.35021 5.47982 7.53592 5.47982C8.70421 5.47982 8.72163 6.57249 8.72163 7.42453V11H10.9973Z" fill="black"/>
<path d="M0.181503 3.65613H2.46217V11H0.181503V3.65613Z" fill="black"/>
<path d="M1.32092 0C0.591708 0 0 0.591708 0 1.32092C0 2.05013 0.591708 2.65421 1.32092 2.65421C2.05013 2.65421 2.64183 2.05013 2.64183 1.32092C2.64138 0.591708 2.04967 0 1.32092 0V0Z" fill="black"/>
</g>
<defs>
<clipPath id="clip0_59_462">
<rect width="11" height="11" fill="white"/>
</clipPath>
</defs>
</svg>
